<?xml version="1.0" encoding="UTF-8" standalone="no"?>
<!-- Uploaded to: SVG Repo, www.svgrepo.com, Generator: SVG Repo Mixer Tools -->

<svg
   width="800px"
   height="800px"
   viewBox="0 0 24 24"
   version="1.1"
   id="svg9"
   sodipodi:docname="back.svg"
   inkscape:version="1.2.2 (732a01da63, 2022-12-09)"
   xmlns:inkscape="http://www.inkscape.org/namespaces/inkscape"
   xmlns:sodipodi="http://sodipodi.sourceforge.net/DTD/sodipodi-0.dtd"
   xmlns="http://www.w3.org/2000/svg"
   xmlns:svg="http://www.w3.org/2000/svg"
   xmlns:rdf="http://www.w3.org/1999/02/22-rdf-syntax-ns#"
   xmlns:cc="http://creativecommons.org/ns#"
   xmlns:dc="http://purl.org/dc/elements/1.1/">
  <defs
     id="defs13" />
  <sodipodi:namedview
     id="namedview11"
     pagecolor="#ffffff"
     bordercolor="#000000"
     borderopacity="0.25"
     inkscape:showpageshadow="2"
     inkscape:pageopacity="0.0"
     inkscape:pagecheckerboard="0"
     inkscape:deskcolor="#d1d1d1"
     showgrid="false"
     inkscape:zoom="1.04625"
     inkscape:cx="397.61051"
     inkscape:cy="400.4779"
     inkscape:window-width="1920"
     inkscape:window-height="1017"
     inkscape:window-x="-8"
     inkscape:window-y="-8"
     inkscape:window-maximized="1"
     inkscape:current-layer="svg9" />
  <title
     id="title2">reverse_fill</title>
  <g
     id="页面-1"
     stroke="none"
     stroke-width="1"
     fill="none"
     fill-rule="evenodd"
     transform="matrix(-1,0,0,1,24,0)">
    <g
       id="Media"
       transform="translate(-288,-48)">
      <g
         id="fast_forward_fill"
         transform="translate(288,48)">
        <path
           d="M 24,0 V 24 H 0 V 0 Z m -11.40651,23.257841 -0.01155,0.0017 -0.07106,0.03553 -0.019,0.0037 v 0 l -0.01516,-0.0037 -0.07106,-0.03553 c -0.0098,-0.0031 -0.01861,-4.89e-4 -0.02351,0.0054 l -0.0041,0.01092 -0.01709,0.427279 0.005,0.02039 0.01101,0.01222 0.103573,0.07398 0.01487,0.0039 v 0 l 0.01177,-0.0039 0.103575,-0.07398 0.0126,-0.01604 v 0 l 0.0034,-0.01656 -0.01709,-0.427279 c -0.002,-0.01013 -0.0085,-0.01653 -0.01607,-0.01799 z m 0.264901,-0.112555 -0.01384,0.002 -0.184705,0.09235 -0.01,0.01024 v 0 l -0.0027,0.01121 0.0179,0.429528 0.0048,0.01278 v 0 l 0.0085,0.0071 0.200954,0.09275 c 0.01209,0.0037 0.02289,-2.52e-4 0.02849,-0.008 l 0.004,-0.01406 -0.03415,-0.614631 c -0.0024,-0.01194 -0.01027,-0.01953 -0.01929,-0.02125 z m -0.715344,0.002 c -0.0098,-0.0049 -0.02087,-0.002 -0.02741,0.0053 l -0.0057,0.01394 -0.03415,0.614631 c -6.39e-4,0.0115 0.007,0.0207 0.01688,0.0234 l 0.01561,-0.0013 0.200955,-0.09275 0.0094,-0.0081 v 0 l 0.0039,-0.0118 0.0179,-0.429528 -0.0032,-0.01259 v 0 l -0.0095,-0.0089 z"
           id="MingCute"
           fill-rule="nonzero" />
        <path
           d="m 13.2124,5.6272 0.355143,0.1674055 v 0 l 0.458225,0.2247028 v 0 l 0.553068,0.2825327 v 0 l 0.417336,0.2207458 v 0 l 0.692835,0.3800991 v 0 l 0.502887,0.2862831 v 0 l 0.532836,0.3127741 v 0 l 0.560345,0.3394229 c 0.09555,0.0588 0.192139,0.1187169 0.289725,0.179754 l 0.575181,0.3655918 v 0 l 0.539815,0.3539786 v 0 l 0.503315,0.3399105 v 0 l 0.465679,0.3233872 v 0 l 0.625473,0.4487294 v 0 l 0.366628,0.2713385 v 0 l 0.607305,0.464874 v 0 L 21.69,10.9335 v 0 c 0.644,0.5254 0.6271,1.5711 -0.0425,2.1178 l -0.307311,0.246945 v 0 l -0.562056,0.434788 v 0 l -0.730066,0.539214 v 0 l -0.425973,0.303249 v 0 l -0.465499,0.322737 v 0 l -0.504199,0.340017 c -0.08721,0.05799 -0.176003,0.116602 -0.266354,0.175799 l -0.560701,0.361801 c -0.09653,0.06134 -0.194579,0.123174 -0.294141,0.18545 l -0.557952,0.343739 v 0 l -0.531774,0.317898 v 0 l -0.503701,0.292344 v 0 l -0.473734,0.267077 v 0 l -0.44187,0.242097 v 0 l -0.598916,0.316933 v 0 l -0.353921,0.1809 v 0 l -0.712238,0.347977 v 0 L 13.1462,18.3685 v 0 c -0.7711,0.3544 -1.6151,-0.1513 -1.7139,-1.0175 l -0.07544,-0.740448 v 0 l -0.06752,-0.83404 v 0 l -0.03249,-0.491868 v 0 l -0.02987,-0.538998 v 0 l -0.02592,-0.58405 v 0 l -0.495619,0.355292 c -0.0874,0.06171 -0.177172,0.124624 -0.269293,0.188651 l -0.5806339,0.396916 v 0 l -0.6354728,0.419866 v 0 L 8.5312,15.9613 v 0 l -0.5579447,0.343739 v 0 l -0.7872452,0.467246 v 0 l -0.7219534,0.410073 v 0 l -0.4418705,0.242097 v 0 l -0.59892,0.316933 v 0 l -0.3539259,0.1809 v 0 l -0.7122561,0.347977 v 0 L 4.14618,18.3685 v 0 C 3.37509,18.7229 2.53112,18.2172 2.43232,17.351 l -0.054371,-0.51672 v 0 l -0.062065,-0.705262 v 0 l -0.061233,-0.880511 v 0 l -0.040249,-0.767394 v 0 l -0.022132,-0.559438 v 0 L 2.168787,13.01491 v 0 l -0.00762,-0.647159 v 0 -0.6824 0 l 0.00818,-0.667314 v 0 l 0.015101,-0.631143 v 0 l 0.033186,-0.8748946 v 0 L 2.259935,8.7287813 v 0 l 0.063749,-0.891009 v 0 l 0.048182,-0.5452892 v 0 l 0.044097,-0.433026 C 2.4204893,6.8178087 2.4248664,6.7783536 2.42907,6.74113 2.53188,5.83063 3.43486,5.26809 4.21243,5.6272 l 0.3551192,0.1674055 v 0 l 0.4582106,0.2247028 v 0 L 5.5788226,6.301841 v 0 l 0.4173353,0.2207458 v 0 l 0.4533888,0.2468424 v 0 l 0.4870008,0.2730967 c 0.083832,0.047713 0.1689631,0.096526 0.255342,0.1464431 l 0.5328417,0.3127741 v 0 L 8.2850817,7.841166 c 0.095549,0.0588 0.1921416,0.1187169 0.2897283,0.179754 0.4653411,0.2910567 0.8990085,0.5736394 1.2985284,0.8423956 L 10.446699,9.255411 v 0 l 0.520283,0.3673412 c 0.08219,0.058938 0.162087,0.1166766 0.239659,0.1731333 l 0.02705,-0.5918952 v 0 l 0.03107,-0.5437818 v 0 l 0.05094,-0.7205767 v 0 l 0.06831,-0.7715378 v 0 L 11.4291,6.74113 v 0 c 0.1028,-0.9105 1.0058,-1.47304 1.7833,-1.11393 z"
           id="路径"
           fill="#09244b" />
      </g>
    </g>
  </g>
  <metadata
     id="metadata242">
    <rdf:RDF>
      <cc:Work
         rdf:about="">
        <dc:title>reverse_fill</dc:title>
      </cc:Work>
    </rdf:RDF>
  </metadata>
</svg>
